#!OML:ASF F:\VICON\USERDATA\INSTALL\rory3\rory3.ASF
:FULLY-SPECIFIED
:DEGREES
305
root 7.65073 17.7949 12.052 -188.37 -84.4904 190.624
lowerback 11.5251 1.24086 2.78474
upperback 0.62454 2.03153 1.12626
thorax -5.75518 0.918665 -0.715696
lowerneck -20.9016 -5.89182 -11.476
upperneck 26.4804 -7.49014 8.74556
head 13.1606 -3.44119 3.99574
rclavicle -4.42296e-015 1.03368e-014
rhumerus -36.2744 -14.3196 -78.1406
rradius 31.5366
rwrist 5.45061
rhand -15.2739 9.22765
rfingers 7.12502
rthumb 10.9006 -20.4694
lclavicle -4.42296e-015 1.03368e-014
lhumerus -30.4333 7.59274 76.3315
lradius 34.7316
lwrist -5.24794
lhand -18.6415 26.524
lfingers 7.12502
lthumb 7.65122 56.3656
rfemur 16.8253 4.37925 27.6494
rtibia 13.5384
rfoot -3.73041 17.2921
rtoes 18.2887
lfemur -24.2676 -3.83648 -18.6522
ltibia 21.1055
lfoot -0.43958 -1.76279
ltoes -8.94374
306
root 7.50056 17.8048 12.0384 -184.447 -84.5728 186.755
lowerback 11.2031 1.31378 1.94033
upperback 0.573947 2.01488 1.10536
thorax -5.65691 0.935783 -0.253126
lowerneck -21.0173 -5.91428 -11.5756
upperneck 26.6509 -7.52722 8.8521
head 13.2695 -3.45418 4.05171
rclavicle 1.88845e-015 -3.57812e-015
rhumerus -36.8125 -14.7914 -77.7356
rradius 31.0751
rwrist 5.45824
rhand -15.1626 9.05796
rfingers 7.12502
rthumb 11.008 -20.6334
lclavicle 1.88845e-015 -3.57812e-015
lhumerus -30.1783 7.87779 76.3702
lradius 34.4769
lwrist -5.69861
lhand -16.6852 24.1679
lfingers 7.12502
lthumb 9.53906 53.932
rfemur 15.9886 4.95355 27.405
rtibia 15.8845
rfoot -3.19145 17.0717
rtoes 17.18
lfemur -23.966 -3.95109 -19.0208
ltibia 21.2047
lfoot -0.383618 -3.30638
ltoes -4.9427
307
root 7.35562 17.8074 12.0463 -178.797 -84.816 181.021
lowerback 11.0571 1.28985 1.25086
upperback 0.579816 1.88895 0.980797
thorax -5.58887 0.892351 0.0274078
lowerneck -21.0937 -5.96996 -11.6504
upperneck 26.6749 -7.58703 8.89421
head 13.3089 -3.48047 4.06985
rclavicle -1.90336e-014 -1.51076e-014
rhumerus -37.2519 -15.4408 -77.2826
rradius 30.4634
rwrist 5.40904
rhand -15.3557 9.06334
rfingers 7.12502
rthumb 10.8216 -20.6379
lclavicle -1.90336e-014 -1.51076e-014
lhumerus -29.9145 8.01308 76.4562
lradius 34.271
lwrist -5.89263
lhand -15.1974 22.2512
lfingers 7.12502
lthumb 10.9743 51.9444
rfemur 15.1937 4.78702 26.6593
rtibia 18.1774
rfoot -2.08757 17.5346
rtoes 17.2007
lfemur -23.6024 -4.17036 -19.6953
ltibia 21.3714
lfoot 0.00761793 -4.99024
ltoes -0.358492
308
root 7.20542 17.8104 12.055 -176.645 -85.0057 178.744
lowerback 10.9097 1.23661 0.988351
upperback 0.598234 1.77944 0.896861
thorax -5.49289 0.845585 0.107849
lowerneck -21.0383 -5.9952 -11.61
upperneck 26.6171 -7.65041 8.92461
head 13.2813 -3.50121 4.06211
rclavicle 9.93923e-017 -1.55052e-014
rhumerus -37.8001 -16.3663 -76.7845
rradius 29.8604
rwrist 5.47578
rhand -15.6109 9.01178
rfingers 7.12502
rthumb 10.5755 -20.7021
lclavicle 9.93923e-017 -1.55052e-014
lhumerus -29.7023 7.91713 76.5312
lradius 34.1133
lwrist -5.84576
lhand -15.6069 22.6688
lfingers 7.12502
lthumb 10.5793 52.3825
rfemur 14.4188 4.3953 26.198
rtibia 20.492
rfoot -0.830998 18.1257
rtoes 16.8508
lfemur -23.1454 -4.16708 -20.0522
ltibia 21.6232
lfoot 0.0951964 -6.38782
ltoes 2.68075
309
root 7.05065 17.8132 12.0652 -178.738 -85.1873 180.689
lowerback 10.7413 1.16176 1.17182
upperback 0.634059 1.69848 0.892759
thorax -5.35567 0.802175 0.0168636
lowerneck -21.0328 -6.00306 -11.6515
upperneck 26.6521 -7.69362 9.04685
head 13.3084 -3.51035 4.11122
rclavicle -1.69464e-014 -4.77083e-015
rhumerus -38.4655 -17.3902 -76.1973
rradius 29.423
rwrist 5.9858
rhand -15.5923 8.86517
rfingers 7.12502
rthumb 10.5935 -20.8478
lclavicle -1.69464e-014 -4.77083e-015
lhumerus -29.5259 7.8728 76.6005
lradius 34.003
lwrist -5.87597
lhand -16.8023 24.2693
lfingers 7.12502
lthumb 9.42609 54.0385
rfemur 13.6154 3.59164 25.908
rtibia 22.8097
rfoot 0.873407 18.9543
rtoes 17.2724
lfemur -22.6086 -4.19665 -19.9846
ltibia 21.9415
lfoot -0.251538 -6.88782
ltoes 2.17545
310
root 6.89734 17.8173 12.076 -180.019 -85.3437 181.77
lowerback 10.6852 1.05757 1.25754
upperback 0.633633 1.56841 0.869637
thorax -5.32256 0.736255 -0.0347696
lowerneck -21.0588 -5.9461 -11.6033
upperneck 26.7585 -7.63951 9.04868
head 13.3483 -3.48374 4.11666
rclavicle 7.8023e-015 2.18663e-014
rhumerus -39.2093 -18.2225 -75.6441
rradius 29.0483
rwrist 6.61941
rhand -15.4839 8.68255
rfingers 7.12502
rthumb 10.698 -21.0251
lclavicle 7.8023e-015 2.18663e-014
lhumerus -29.4705 8.01715 76.5711
lradius 33.9352
lwrist -6.00946
lhand -17.1924 25.2116
lfingers 7.12502
lthumb 9.0497 54.9975
rfemur 12.8385 2.77101 25.4762
rtibia 25.0535
rfoot 3.18313 19.77
rtoes 18.0945
lfemur -22.0267 -4.18262 -20.0274
ltibia 22.3162
lfoot -0.681117 -6.59496
ltoes -0.392591
311
root 6.74794 17.8229 12.0924 -178.89 -85.449 180.413
lowerback 10.7238 0.996004 1.17308
upperback 0.630652 1.47472 0.816716
thorax -5.34872 0.691571 -0.0292171
lowerneck -20.9739 -5.90657 -11.584
upperneck 26.7081 -7.59573 9.05032
head 13.303 -3.46478 4.12174
rclavicle -2.28105e-014 -9.93923e-015
rhumerus -39.9054 -19.025 -75.0242
rradius 28.6696
rwrist 7.12453
rhand -15.392 8.5254
rfingers 7.12502
rthumb 10.7867 -21.1776
lclavicle -2.28105e-014 -9.93923e-015
lhumerus -29.365 8.17431 76.6294
lradius 33.7846
lwrist -6.15761
lhand -17.3594 25.5089
lfingers 7.12502
lthumb 8.88858 55.3017
rfemur 11.9828 2.31889 24.9578
rtibia 27.3545
rfoot 5.83516 20.3105
rtoes 18.5515
lfemur -21.4019 -4.20418 -20.2914
ltibia 22.593
lfoot -0.903745 -6.25279
ltoes -1.29717
312
root 6.59861 17.83 12.1107 -177.226 -85.4978 178.485
lowerback 10.7592 1.00594 1.12164
upperback 0.675746 1.47641 0.731537
thorax -5.32012 0.692752 -0.0896795
lowerneck -20.9004 -5.92444 -11.6049
upperneck 26.6496 -7.61485 9.04364
head 13.2667 -3.47736 4.11806
rclavicle 1.13804e-014 -2.78299e-015
rhumerus -40.5968 -19.9123 -74.3376
rradius 28.3633
rwrist 7.48539
rhand -15.3806 8.42653
rfingers 7.12502
rthumb 10.7977 -21.2759
lclavicle 1.13804e-014 -2.78299e-015
lhumerus -29.2131 8.08242 76.7975
lradius 33.7242
lwrist -6.30237
lhand -17.6554 25.9129
lfingers 7.12502
lthumb 8.60286 55.7177
rfemur 11.0306 1.99508 24.4134
rtibia 29.7441
rfoot 8.71521 20.6741
rtoes 18.4222
lfemur -20.6618 -4.11736 -20.636
ltibia 22.7027
lfoot -1.02525 -6.44248
ltoes -0.154742
313
root 6.44883 17.8369 12.1225 -175.787 -85.4515 176.765
lowerback 10.7992 1.01135 1.01639
upperback 0.727806 1.46516 0.643357
thorax -5.28819 0.688721 -0.121038
lowerneck -20.8929 -5.8976 -11.5883
upperneck 26.6499 -7.57238 9.01331
head 13.2574 -3.46135 4.11111
rclavicle 1.30204e-014 0
rhumerus -41.1896 -20.3635 -73.9298
rradius 28.059
rwrist 7.38726
rhand -15.4629 8.41192
rfingers 7.12502
rthumb 10.7182 -21.2947
lclavicle 1.30204e-014 0
lhumerus -29.0699 7.88097 76.9283
lradius 33.6856
lwrist -6.20395
lhand -18.0072 26.4835
lfingers 7.12502
lthumb 8.26342 56.3019
rfemur 10.0025 1.68228 23.8329
rtibia 32.1688
rfoot 11.6236 21.1198
rtoes 17.1019
lfemur -19.8221 -3.71717 -21.0046
ltibia 22.6757
lfoot -1.19762 -7.15639
ltoes 1.56574
314
root 6.30045 17.8437 12.1358 -173.255 -85.277 173.948
lowerback 10.903 1.05689 0.823698
upperback 0.739792 1.49613 0.51056
thorax -5.33472 0.706744 -0.157882
lowerneck -20.9167 -5.89728 -11.5626
upperneck 26.7738 -7.59205 9.00494
head 13.3145 -3.47083 4.10267
rclavicle 1.88845e-015 1.59028e-015
rhumerus -41.8117 -20.6362 -73.6435
rradius 27.7173
rwrist 7.30859
rhand -15.5377 8.67122
rfingers 7.12502
rthumb 10.6461 -21.0391
lclavicle 1.88845e-015 1.59028e-015
lhumerus -28.9559 7.48598 77.047
lradius 33.624
lwrist -5.88253
lhand -18.2837 27.0622
lfingers 7.12502
lthumb 7.9965 56.891
rfemur 8.89921 1.5668 23.1714
rtibia 34.6343
rfoot 14.4111 21.7989
rtoes 14.3854
lfemur -18.9112 -3.26448 -21.4889
ltibia 22.5207
lfoot -1.34923 -7.72971
ltoes 3.22527
